<svg width="270" height="280" viewBox="0 0 270 280" fill="none" xmlns="http://www.w3.org/2000/svg">
<path d="M0 50C0 22.3858 22.3858 0 50 0H220C247.614 0 270 22.3858 270 50V230C270 257.614 247.614 280 220 280H50C22.3858 280 0 257.614 0 230V50Z" fill="#222222"/>
<path d="M59 90.8906V68C59 65.2386 61.2386 63 64 63H170.199C173.291 63 175.642 65.779 175.13 68.8287L172.123 86.7193C171.718 89.1272 169.634 90.8906 167.192 90.8906H126.678C124.231 90.8906 122.144 92.6605 121.745 95.0738L101.255 218.817C100.856 221.23 98.7685 223 96.3223 223H71.8269C69.1847 223 66.9986 220.944 66.8364 218.307L59 90.8906Z" fill="#F0EFEA"/>
<path d="M154.599 160.94C151.639 160.94 149.326 158.382 149.625 155.436L151.168 140.223C151.427 137.67 153.576 135.727 156.142 135.727H217.767C220.728 135.727 223.04 138.286 222.742 141.232L221.199 156.445C220.94 158.998 218.79 160.94 216.224 160.94H203.154C200.757 160.94 198.697 162.642 198.244 164.996L187.872 218.944C187.42 221.298 185.359 223 182.962 223H164.907C161.767 223 159.404 220.14 159.997 217.056L169.643 166.884C170.236 163.801 167.873 160.94 164.733 160.94H154.599Z" fill="#CD5C5C"/>
</svg>
